<svg width="19" height="22" viewBox="0 0 19 22" fill="none" xmlns="http://www.w3.org/2000/svg">
<path d="M7.30084 13.8709C8.89844 13.7345 10.5053 13.7345 12.1029 13.8709L12.6129 13.9127C13.3107 13.9793 14.0034 14.0835 14.6852 14.2243C16.4228 14.5707 17.6846 15.1853 18.2431 16.3252C18.6581 17.1732 18.6581 18.1578 18.243 19.0062C17.683 20.149 16.405 20.7687 14.6981 21.0945L14.181 21.1984C13.4898 21.3268 12.7928 21.4144 12.1004 21.4603C10.8013 21.5673 9.496 21.5868 8.23693 21.5198C8.09814 21.5198 8.00498 21.5193 7.92291 21.5175L7.76328 21.5117C7.56921 21.5021 7.3914 21.4824 7.31679 21.4613C6.44083 21.4037 5.57069 21.281 4.73596 21.0987L4.45281 21.0415C2.87218 20.7017 1.70161 20.0885 1.16015 19.005C0.955084 18.5846 0.849016 18.125 0.849631 17.6637C0.847849 17.199 0.954783 16.7401 1.16747 16.3114C1.73138 15.2153 3.05628 14.5557 4.71236 14.2256C5.57038 14.0476 6.44026 13.9287 7.30084 13.8709ZM11.9633 15.4152C10.4586 15.2868 8.94514 15.2868 7.42576 15.4163C6.62537 15.4702 5.82989 15.579 5.03907 15.7429C3.81428 15.9871 2.87785 16.4533 2.59928 16.9946C2.4967 17.2014 2.44386 17.4282 2.44473 17.6618C2.44444 17.8967 2.49799 18.1287 2.59824 18.3343C2.88473 18.9076 3.76837 19.336 5.06308 19.5816L5.45315 19.6615C6.10645 19.7868 6.7793 19.8732 7.52705 19.9279C7.62148 19.9462 7.72337 19.9575 7.84428 19.9635L8.27982 19.9707C9.50829 20.035 10.7399 20.0166 11.9788 19.9146C12.7772 19.8617 13.5705 19.7502 14.3711 19.5774L14.62 19.5263C15.757 19.2768 16.5437 18.8686 16.8026 18.3401C17.0114 17.9133 17.0114 17.4177 16.8028 16.9913C16.5257 16.4257 15.6498 15.9991 14.3591 15.7418C13.5739 15.5796 12.7781 15.4708 11.9773 15.4163L11.9633 15.4152ZM9.70672 0.141693C12.9533 0.141693 15.5853 2.69957 15.5853 5.85486C15.5853 9.01016 12.9533 11.568 9.70672 11.568C6.46009 11.568 3.82818 9.01016 3.82818 5.85486C3.82818 2.69957 6.46009 0.141693 9.70672 0.141693ZM9.70672 1.69193C7.34104 1.69193 5.42328 3.55574 5.42328 5.85486C5.42328 8.15399 7.34104 10.0178 9.70672 10.0178C12.0724 10.0178 13.9902 8.15399 13.9902 5.85486C13.9902 3.55574 12.0724 1.69193 9.70672 1.69193Z" fill="#F78D78"/>
</svg>
