<svg width="23" height="22" viewBox="0 0 23 22" fill="none" xmlns="http://www.w3.org/2000/svg">
<path d="M9.03357 13.9965L9.38742 13.9981C14.5267 14.0428 17.4345 15.0808 17.4345 17.9159C17.4345 20.691 14.6476 21.7615 9.73307 21.8512L9.03357 21.8574C3.67309 21.8574 0.633789 20.8385 0.633789 17.9381C0.633789 15.0339 3.68519 13.9965 9.03357 13.9965ZM9.03357 15.6564C4.58819 15.6564 2.29361 16.4364 2.29361 17.9381C2.29361 19.4302 4.58269 20.1976 9.03357 20.1976C13.4793 20.1976 15.7746 19.4175 15.7746 17.9159C15.7746 16.4246 13.4835 15.6564 9.03357 15.6564ZM17.8812 13.2129C18.5236 13.2566 19.1623 13.3487 19.776 13.4848C21.0907 13.7463 22.0681 14.2345 22.5159 15.1741C22.8466 15.8698 22.8466 16.6792 22.516 17.3748C22.0706 18.3121 21.1034 18.7967 19.7813 19.0686C19.3324 19.161 18.8936 18.8719 18.8012 18.4229C18.7089 17.974 18.998 17.5352 19.4469 17.4429C20.2977 17.2679 20.8639 16.9841 21.0168 16.6624C21.1332 16.4175 21.1332 16.1314 21.0172 15.8874C20.8633 15.5645 20.2941 15.2802 19.4347 15.109C18.8844 14.9872 18.328 14.907 17.7685 14.8689C17.3112 14.8378 16.9657 14.4419 16.9969 13.9846C17.028 13.5273 17.4239 13.1818 17.8812 13.2129ZM9.03357 0.766144C12.185 0.766144 14.7157 3.29638 14.7157 6.44714C14.7157 9.59882 12.1852 12.1293 9.03357 12.1293C5.88205 12.1293 3.35257 9.59897 3.35257 6.44714C3.35257 3.29622 5.88225 0.766144 9.03357 0.766144ZM16.1472 1.9497C18.6202 1.9497 20.6254 3.95529 20.6254 6.42789C20.6254 8.90125 18.6206 10.9061 16.1472 10.9061C15.6889 10.9061 15.3173 10.5345 15.3173 10.0762C15.3173 9.61782 15.6889 9.24626 16.1472 9.24626C17.7039 9.24626 18.9656 7.98456 18.9656 6.42789C18.9656 4.8719 17.7035 3.60952 16.1472 3.60952C15.6889 3.60952 15.3173 3.23796 15.3173 2.77961C15.3173 2.32127 15.6889 1.9497 16.1472 1.9497ZM9.03357 2.42596C6.799 2.42596 5.01239 4.21285 5.01239 6.44714C5.01239 8.6824 6.79886 10.4694 9.03357 10.4694C11.2686 10.4694 13.0559 8.68213 13.0559 6.44714C13.0559 4.21313 11.2684 2.42596 9.03357 2.42596Z" fill="#F78D78"/>
</svg>
