<svg width="22" height="23" viewBox="0 0 22 23" fill="none" xmlns="http://www.w3.org/2000/svg">
<path d="M7.53504 20.7735V17.39C7.53504 16.5263 8.24034 15.8261 9.11038 15.8261H12.2908C12.7086 15.8261 13.1093 15.9909 13.4047 16.2842C13.7001 16.5775 13.8661 16.9753 13.8661 17.39V20.7735C13.8635 21.1326 14.0053 21.4779 14.2602 21.7327C14.515 21.9876 14.8618 22.1309 15.2235 22.1309H17.3933C18.4067 22.1335 19.3795 21.7357 20.097 21.0252C20.8145 20.3148 21.2177 19.3501 21.2177 18.3441V8.70503C21.2177 7.89239 20.8548 7.12155 20.2269 6.60017L12.8456 0.747879C11.5616 -0.278228 9.72194 -0.245097 8.47628 0.826566L1.2634 6.60017C0.605814 7.10618 0.212782 7.8793 0.193359 8.70503V18.3343C0.193359 20.4311 1.90561 22.1309 4.01777 22.1309H6.13804C6.88931 22.1309 7.49987 21.5292 7.50531 20.7834L7.53504 20.7735Z" fill="#F78D78"/>
</svg>
