<svg width="16" height="16" viewBox="0 0 16 16" fill="none" xmlns="http://www.w3.org/2000/svg">
<path d="M3.90794 11.8771C3.26902 11.3018 2.80811 10.612 2.50613 9.87133C1.7051 7.90689 2.08019 5.57054 3.64411 3.95894L5.08724 5.40207C5.16671 5.48154 5.30975 5.42432 5.32883 5.30671L6.11715 0.147665C6.12986 0.0618394 6.05675 -0.0112709 5.97093 0.00144398L0.808703 0.789764C0.691091 0.808836 0.633874 0.951878 0.713342 1.03135L2.15965 2.47766C-0.227556 4.91891 -0.634431 8.58078 0.932673 11.4416C1.40312 12.303 2.05476 13.0914 2.8844 13.7525C4.29575 14.8746 6.03132 15.4118 7.75418 15.3769L8.07841 13.2567C6.59395 13.3838 5.06817 12.9261 3.90794 11.8771Z" fill="white"/>
<path d="M13.5076 13.1518C15.8948 10.7105 16.3017 7.04864 14.7346 4.1878C14.2642 3.32637 13.6125 2.53805 12.7829 1.87688C11.3715 0.754799 9.63596 0.217598 7.9131 0.252564L7.58887 2.37276C9.07015 2.24561 10.5991 2.70335 11.7593 3.75232C12.3983 4.32767 12.8592 5.01745 13.1611 5.75809C13.9622 7.72253 13.5871 10.0589 12.0232 11.6705L10.58 10.2274C10.5006 10.1479 10.3575 10.2051 10.3384 10.3227L9.55013 15.4818C9.53742 15.5676 9.61053 15.6407 9.69635 15.628L14.8586 14.8397C14.9762 14.8206 15.0302 14.6775 14.9539 14.5981L13.5076 13.1518Z" fill="white"/>
</svg>
