<svg width="152" height="47" viewBox="0 0 152 47" fill="none" xmlns="http://www.w3.org/2000/svg">
<path d="M22.5 47C34.9264 47 45 36.9264 45 24.5C45 12.0736 34.9264 2 22.5 2C10.0736 2 0 12.0736 0 24.5C0 36.9264 10.0736 47 22.5 47Z" fill="#EEEEEE"/>
<path d="M22.5 45C34.9264 45 45 34.9264 45 22.5C45 10.0736 34.9264 0 22.5 0C10.0736 0 0 10.0736 0 22.5C0 34.9264 10.0736 45 22.5 45Z" fill="white"/>
<path d="M29.0108 15.764H15.9893V11.372C15.9899 10.7966 16.2188 10.245 16.6256 9.83814C17.0325 9.43129 17.5841 9.20243 18.1595 9.20178H26.8406C27.416 9.20243 27.9676 9.43129 28.3744 9.83814C28.7813 10.245 29.0101 10.7966 29.0108 11.372V15.764ZM17.8494 13.9039H27.1507V11.3727C27.1506 11.2905 27.1179 11.2117 27.0597 11.1535C27.0016 11.0954 26.9228 11.0627 26.8406 11.0626H18.1595C18.0772 11.0627 17.9984 11.0954 17.9403 11.1535C17.8822 11.2117 17.8495 11.2905 17.8494 11.3727V13.9039Z" fill="#F78D78"/>
<path d="M9.4375 18.6567H35.5632V33.3457C35.5632 33.6232 35.4529 33.8893 35.2567 34.0855C35.0605 34.2817 34.7944 34.3919 34.5169 34.3919H10.4838C10.2063 34.3919 9.94015 34.2817 9.74394 34.0855C9.54773 33.8893 9.4375 33.6232 9.4375 33.3457V18.6567V18.6567Z" fill="#F78D78"/>
<path d="M35.8678 13.8392H9.13219C8.55436 13.8392 8.08594 14.3077 8.08594 14.8855V21.62C8.08594 22.1978 8.55436 22.6663 9.13219 22.6663H35.8678C36.4456 22.6663 36.9141 22.1978 36.9141 21.62V14.8855C36.9141 14.3077 36.4456 13.8392 35.8678 13.8392Z" fill="#F78D78"/>
<path d="M9.4375 22.6666H35.5632V23.9091H9.4375V22.6666Z" fill="#F77147"/>
<path d="M23.9985 21.0477H21.0015C20.8302 21.0477 20.6914 21.1865 20.6914 21.3578V24.6646C20.6914 24.8358 20.8302 24.9746 21.0015 24.9746H23.9985C24.1698 24.9746 24.3086 24.8358 24.3086 24.6646V21.3578C24.3086 21.1865 24.1698 21.0477 23.9985 21.0477Z" fill="#F6C863"/>
<path d="M23.5684 21.8035V24.2191H21.4312V21.8035H23.5684Z" fill="#EAB54E"/>
<path d="M64.083 24.136C63.199 24.136 62.4283 23.9943 61.771 23.711C61.1137 23.4277 60.6037 23.031 60.241 22.521C59.8897 22.011 59.714 21.4103 59.714 20.719V20.294C59.714 20.2373 59.731 20.192 59.765 20.158C59.8103 20.1127 59.8613 20.09 59.918 20.09H61.431C61.4877 20.09 61.533 20.1127 61.567 20.158C61.6123 20.192 61.635 20.2373 61.635 20.294V20.617C61.635 21.1383 61.8673 21.5747 62.332 21.926C62.7967 22.266 63.4313 22.436 64.236 22.436C64.9273 22.436 65.4487 22.2887 65.8 21.994C66.1513 21.6993 66.327 21.3197 66.327 20.855C66.327 20.5377 66.2307 20.2713 66.038 20.056C65.8453 19.8293 65.5677 19.6253 65.205 19.444C64.8537 19.2627 64.321 19.036 63.607 18.764C62.8023 18.4693 62.1507 18.1917 61.652 17.931C61.1533 17.6703 60.734 17.319 60.394 16.877C60.0653 16.4237 59.901 15.8627 59.901 15.194C59.901 14.1967 60.2637 13.409 60.989 12.831C61.7143 12.253 62.6833 11.964 63.896 11.964C64.746 11.964 65.494 12.1113 66.14 12.406C66.7973 12.7007 67.3073 13.1143 67.67 13.647C68.0327 14.1683 68.214 14.7747 68.214 15.466V15.755C68.214 15.8117 68.1913 15.8627 68.146 15.908C68.112 15.942 68.0667 15.959 68.01 15.959H66.48C66.4233 15.959 66.3723 15.942 66.327 15.908C66.293 15.8627 66.276 15.8117 66.276 15.755V15.568C66.276 15.0353 66.055 14.5877 65.613 14.225C65.1823 13.851 64.5817 13.664 63.811 13.664C63.1877 13.664 62.7003 13.7943 62.349 14.055C62.009 14.3157 61.839 14.684 61.839 15.16C61.839 15.5 61.9297 15.7777 62.111 15.993C62.2923 16.2083 62.5643 16.4067 62.927 16.588C63.2897 16.758 63.8507 16.979 64.61 17.251C65.4147 17.557 66.055 17.8347 66.531 18.084C67.0183 18.3333 67.432 18.6847 67.772 19.138C68.1233 19.58 68.299 20.1353 68.299 20.804C68.299 21.824 67.9193 22.6343 67.16 23.235C66.412 23.8357 65.3863 24.136 64.083 24.136ZM74.2629 15.177C75.1809 15.177 75.9119 15.449 76.4559 15.993C77.0113 16.537 77.2889 17.2793 77.2889 18.22V23.796C77.2889 23.8527 77.2663 23.9037 77.2209 23.949C77.1869 23.983 77.1416 24 77.0849 24H75.5209C75.4643 24 75.4133 23.983 75.3679 23.949C75.3339 23.9037 75.3169 23.8527 75.3169 23.796V18.628C75.3169 18.1067 75.1696 17.6873 74.8749 17.37C74.5803 17.0413 74.1893 16.877 73.7019 16.877C73.2146 16.877 72.8179 17.0357 72.5119 17.353C72.2173 17.6703 72.0699 18.0897 72.0699 18.611V23.796C72.0699 23.8527 72.0473 23.9037 72.0019 23.949C71.9679 23.983 71.9226 24 71.8659 24H70.3019C70.2453 24 70.1943 23.983 70.1489 23.949C70.1149 23.9037 70.0979 23.8527 70.0979 23.796V12.304C70.0979 12.2473 70.1149 12.202 70.1489 12.168C70.1943 12.1227 70.2453 12.1 70.3019 12.1H71.8659C71.9226 12.1 71.9679 12.1227 72.0019 12.168C72.0473 12.202 72.0699 12.2473 72.0699 12.304V16.061C72.0699 16.095 72.0813 16.1177 72.1039 16.129C72.1266 16.1403 72.1436 16.129 72.1549 16.095C72.6196 15.483 73.3223 15.177 74.2629 15.177ZM82.66 15.177C83.374 15.177 84.003 15.3017 84.547 15.551C85.091 15.8003 85.5103 16.146 85.805 16.588C86.0997 17.0187 86.247 17.5117 86.247 18.067V23.796C86.247 23.8527 86.2243 23.9037 86.179 23.949C86.145 23.983 86.0997 24 86.043 24H84.479C84.4223 24 84.3713 23.983 84.326 23.949C84.292 23.9037 84.275 23.8527 84.275 23.796V23.252C84.275 23.218 84.2637 23.201 84.241 23.201C84.2183 23.1897 84.1957 23.1953 84.173 23.218C83.6177 23.83 82.813 24.136 81.759 24.136C80.909 24.136 80.2063 23.9207 79.651 23.49C79.107 23.0593 78.835 22.419 78.835 21.569C78.835 20.685 79.141 19.9993 79.753 19.512C80.3763 19.0133 81.249 18.764 82.371 18.764H84.19C84.2467 18.764 84.275 18.7357 84.275 18.679V18.271C84.275 17.829 84.1447 17.489 83.884 17.251C83.6233 17.0017 83.2323 16.877 82.711 16.877C82.2803 16.877 81.929 16.9563 81.657 17.115C81.3963 17.2623 81.232 17.472 81.164 17.744C81.13 17.88 81.0507 17.9367 80.926 17.914L79.277 17.71C79.2203 17.6987 79.1693 17.6817 79.124 17.659C79.09 17.625 79.0787 17.5853 79.09 17.54C79.1807 16.8487 79.549 16.282 80.195 15.84C80.8523 15.398 81.674 15.177 82.66 15.177ZM82.252 22.572C82.8073 22.572 83.2833 22.4247 83.68 22.13C84.0767 21.8353 84.275 21.4613 84.275 21.008V20.209C84.275 20.1523 84.2467 20.124 84.19 20.124H82.762C82.1613 20.124 81.6853 20.2373 81.334 20.464C80.994 20.6907 80.824 21.0137 80.824 21.433C80.824 21.7957 80.9543 22.079 81.215 22.283C81.487 22.4757 81.8327 22.572 82.252 22.572ZM92.2729 15.211C92.6355 15.211 92.9529 15.2847 93.2249 15.432C93.3155 15.4773 93.3495 15.5623 93.3269 15.687L93.0379 17.217C93.0265 17.353 92.9472 17.3927 92.7999 17.336C92.6299 17.2793 92.4315 17.251 92.2049 17.251C92.0575 17.251 91.9442 17.2567 91.8649 17.268C91.3889 17.2907 90.9922 17.4607 90.6749 17.778C90.3575 18.084 90.1989 18.4863 90.1989 18.985V23.796C90.1989 23.8527 90.1762 23.9037 90.1309 23.949C90.0969 23.983 90.0515 24 89.9949 24H88.4309C88.3742 24 88.3232 23.983 88.2779 23.949C88.2439 23.9037 88.2269 23.8527 88.2269 23.796V15.517C88.2269 15.4603 88.2439 15.415 88.2779 15.381C88.3232 15.3357 88.3742 15.313 88.4309 15.313H89.9949C90.0515 15.313 90.0969 15.3357 90.1309 15.381C90.1762 15.415 90.1989 15.4603 90.1989 15.517V16.282C90.1989 16.3273 90.2045 16.3557 90.2159 16.367C90.2385 16.367 90.2612 16.35 90.2839 16.316C90.7599 15.5793 91.4229 15.211 92.2729 15.211ZM101.779 18.679C101.825 18.9623 101.847 19.2797 101.847 19.631L101.83 20.158C101.83 20.294 101.762 20.362 101.626 20.362H96.3054C96.2488 20.362 96.2204 20.3903 96.2204 20.447C96.2544 20.821 96.3054 21.076 96.3734 21.212C96.6454 22.028 97.3084 22.4417 98.3624 22.453C99.1331 22.453 99.7451 22.1357 100.198 21.501C100.244 21.433 100.3 21.399 100.368 21.399C100.414 21.399 100.453 21.416 100.487 21.45L101.541 22.317C101.643 22.3963 101.66 22.487 101.592 22.589C101.241 23.0877 100.771 23.473 100.181 23.745C99.6034 24.017 98.9574 24.153 98.2434 24.153C97.3594 24.153 96.6058 23.9547 95.9824 23.558C95.3704 23.1613 94.9228 22.606 94.6394 21.892C94.3788 21.28 94.2484 20.43 94.2484 19.342C94.2484 18.6847 94.3164 18.152 94.4524 17.744C94.6791 16.9507 95.1041 16.3273 95.7274 15.874C96.3621 15.4093 97.1214 15.177 98.0054 15.177C100.238 15.177 101.496 16.3443 101.779 18.679ZM98.0054 16.877C97.5861 16.877 97.2348 16.9847 96.9514 17.2C96.6794 17.404 96.4868 17.693 96.3734 18.067C96.3054 18.2597 96.2601 18.509 96.2374 18.815C96.2148 18.8717 96.2374 18.9 96.3054 18.9H99.7564C99.8131 18.9 99.8414 18.8717 99.8414 18.815C99.8188 18.5317 99.7848 18.3163 99.7394 18.169C99.6374 17.761 99.4334 17.4437 99.1274 17.217C98.8328 16.9903 98.4588 16.877 98.0054 16.877ZM111.269 24.17C110.419 24.17 109.665 24 109.008 23.66C108.351 23.3087 107.841 22.8157 107.478 22.181C107.127 21.5463 106.951 20.8153 106.951 19.988V16.112C106.951 15.296 107.132 14.5763 107.495 13.953C107.858 13.3183 108.362 12.831 109.008 12.491C109.665 12.1397 110.419 11.964 111.269 11.964C112.13 11.964 112.884 12.1397 113.53 12.491C114.187 12.831 114.697 13.3183 115.06 13.953C115.423 14.5763 115.604 15.296 115.604 16.112V19.988C115.604 20.8153 115.423 21.5463 115.06 22.181C114.697 22.8157 114.187 23.3087 113.53 23.66C112.884 24 112.13 24.17 111.269 24.17ZM111.269 22.47C111.983 22.47 112.555 22.249 112.986 21.807C113.417 21.365 113.632 20.7813 113.632 20.056V16.095C113.632 15.3583 113.417 14.769 112.986 14.327C112.555 13.885 111.983 13.664 111.269 13.664C110.566 13.664 110 13.885 109.569 14.327C109.138 14.769 108.923 15.3583 108.923 16.095V20.056C108.923 20.7813 109.138 21.365 109.569 21.807C110 22.249 110.566 22.47 111.269 22.47ZM130.719 14.123C130.367 14.123 130.078 14.0097 129.852 13.783C129.636 13.5563 129.529 13.2673 129.529 12.916C129.529 12.5647 129.636 12.2757 129.852 12.049C130.078 11.8223 130.367 11.709 130.719 11.709C131.07 11.709 131.359 11.8223 131.586 12.049C131.812 12.2757 131.926 12.5647 131.926 12.916C131.926 13.2673 131.812 13.5563 131.586 13.783C131.359 14.0097 131.07 14.123 130.719 14.123ZM125.993 15.228C125.993 15.2847 126.021 15.313 126.078 15.313H127.863C127.919 15.313 127.965 15.3357 127.999 15.381C128.044 15.415 128.067 15.4603 128.067 15.517V16.707C128.067 16.7637 128.044 16.8147 127.999 16.86C127.965 16.894 127.919 16.911 127.863 16.911H126.078C126.021 16.911 125.993 16.9393 125.993 16.996V23.796C125.993 23.8527 125.97 23.9037 125.925 23.949C125.891 23.983 125.845 24 125.789 24H124.225C124.168 24 124.117 23.983 124.072 23.949C124.038 23.9037 124.021 23.8527 124.021 23.796V16.996C124.021 16.9393 123.992 16.911 123.936 16.911H120.366C120.309 16.911 120.281 16.9393 120.281 16.996V23.796C120.281 23.8527 120.258 23.9037 120.213 23.949C120.179 23.983 120.133 24 120.077 24H118.513C118.456 24 118.405 23.983 118.36 23.949C118.326 23.9037 118.309 23.8527 118.309 23.796V16.996C118.309 16.9393 118.28 16.911 118.224 16.911H117.255C117.198 16.911 117.147 16.894 117.102 16.86C117.068 16.8147 117.051 16.7637 117.051 16.707V15.517C117.051 15.4603 117.068 15.415 117.102 15.381C117.147 15.3357 117.198 15.313 117.255 15.313H118.224C118.28 15.313 118.309 15.2847 118.309 15.228V14.667C118.309 13.7377 118.547 13.069 119.023 12.661C119.51 12.2417 120.326 12.0547 121.471 12.1H122.049C122.105 12.1 122.151 12.1227 122.185 12.168C122.23 12.202 122.253 12.2473 122.253 12.304V13.256C122.253 13.3127 122.23 13.3637 122.185 13.409C122.151 13.443 122.105 13.46 122.049 13.46H121.471C121.017 13.4713 120.706 13.5903 120.536 13.817C120.366 14.0323 120.281 14.3723 120.281 14.837V15.228C120.281 15.2847 120.309 15.313 120.366 15.313H123.936C123.992 15.313 124.021 15.2847 124.021 15.228V14.667C124.021 13.7377 124.259 13.069 124.735 12.661C125.222 12.2417 126.038 12.0547 127.183 12.1H127.761C127.817 12.1 127.863 12.1227 127.897 12.168C127.942 12.202 127.965 12.2473 127.965 12.304V13.256C127.965 13.3127 127.942 13.3637 127.897 13.409C127.863 13.443 127.817 13.46 127.761 13.46H127.183C126.729 13.4713 126.418 13.5903 126.248 13.817C126.078 14.0323 125.993 14.3723 125.993 14.837V15.228ZM129.903 24C129.846 24 129.795 23.983 129.75 23.949C129.716 23.9037 129.699 23.8527 129.699 23.796V15.5C129.699 15.4433 129.716 15.398 129.75 15.364C129.795 15.3187 129.846 15.296 129.903 15.296H131.467C131.523 15.296 131.569 15.3187 131.603 15.364C131.648 15.398 131.671 15.4433 131.671 15.5V23.796C131.671 23.8527 131.648 23.9037 131.603 23.949C131.569 23.983 131.523 24 131.467 24H129.903ZM137.552 24.136C136.679 24.136 135.926 23.915 135.291 23.473C134.656 23.0197 134.214 22.4133 133.965 21.654C133.784 21.144 133.693 20.464 133.693 19.614C133.693 18.798 133.784 18.1293 133.965 17.608C134.203 16.86 134.639 16.2707 135.274 15.84C135.92 15.398 136.679 15.177 137.552 15.177C138.436 15.177 139.207 15.398 139.864 15.84C140.521 16.282 140.958 16.8373 141.173 17.506C141.23 17.6873 141.269 17.8687 141.292 18.05V18.084C141.292 18.1973 141.23 18.2653 141.105 18.288L139.575 18.509H139.541C139.439 18.509 139.371 18.4523 139.337 18.339C139.337 18.2823 139.331 18.237 139.32 18.203C139.297 18.1123 139.275 18.033 139.252 17.965C139.15 17.6477 138.946 17.387 138.64 17.183C138.334 16.979 137.971 16.877 137.552 16.877C137.121 16.877 136.753 16.9903 136.447 17.217C136.152 17.4323 135.954 17.7327 135.852 18.118C135.739 18.4807 135.682 18.985 135.682 19.631C135.682 20.2543 135.733 20.7587 135.835 21.144C135.948 21.5407 136.152 21.858 136.447 22.096C136.742 22.3227 137.11 22.436 137.552 22.436C137.983 22.436 138.351 22.3283 138.657 22.113C138.974 21.8863 139.178 21.586 139.269 21.212C139.28 21.1893 139.286 21.161 139.286 21.127C139.297 21.1157 139.303 21.0987 139.303 21.076C139.337 20.94 139.416 20.8833 139.541 20.906L141.071 21.144C141.128 21.1553 141.173 21.1837 141.207 21.229C141.252 21.263 141.269 21.314 141.258 21.382C141.224 21.5633 141.196 21.6937 141.173 21.773C140.958 22.4983 140.521 23.0763 139.864 23.507C139.207 23.9263 138.436 24.136 137.552 24.136ZM150.206 18.679C150.252 18.9623 150.274 19.2797 150.274 19.631L150.257 20.158C150.257 20.294 150.189 20.362 150.053 20.362H144.732C144.676 20.362 144.647 20.3903 144.647 20.447C144.681 20.821 144.732 21.076 144.8 21.212C145.072 22.028 145.735 22.4417 146.789 22.453C147.56 22.453 148.172 22.1357 148.625 21.501C148.671 21.433 148.727 21.399 148.795 21.399C148.841 21.399 148.88 21.416 148.914 21.45L149.968 22.317C150.07 22.3963 150.087 22.487 150.019 22.589C149.668 23.0877 149.198 23.473 148.608 23.745C148.03 24.017 147.384 24.153 146.67 24.153C145.786 24.153 145.033 23.9547 144.409 23.558C143.797 23.1613 143.35 22.606 143.066 21.892C142.806 21.28 142.675 20.43 142.675 19.342C142.675 18.6847 142.743 18.152 142.879 17.744C143.106 16.9507 143.531 16.3273 144.154 15.874C144.789 15.4093 145.548 15.177 146.432 15.177C148.665 15.177 149.923 16.3443 150.206 18.679ZM146.432 16.877C146.013 16.877 145.662 16.9847 145.378 17.2C145.106 17.404 144.914 17.693 144.8 18.067C144.732 18.2597 144.687 18.509 144.664 18.815C144.642 18.8717 144.664 18.9 144.732 18.9H148.183C148.24 18.9 148.268 18.8717 148.268 18.815C148.246 18.5317 148.212 18.3163 148.166 18.169C148.064 17.761 147.86 17.4437 147.554 17.217C147.26 16.9903 146.886 16.877 146.432 16.877Z" fill="#231E07"/>
<path d="M63.45 32.35C63.4167 32.37 63.4167 32.39 63.45 32.41C63.81 32.5567 64.0833 32.7733 64.27 33.06C64.4567 33.3467 64.55 33.6933 64.55 34.1C64.55 34.7 64.3567 35.1667 63.97 35.5C63.59 35.8333 63.0867 36 62.46 36H60.04C59.9733 36 59.94 35.9667 59.94 35.9V29.1C59.94 29.0333 59.9733 29 60.04 29H62.39C63.0367 29 63.5433 29.16 63.91 29.48C64.2833 29.8 64.47 30.25 64.47 30.83C64.47 31.1967 64.38 31.51 64.2 31.77C64.0267 32.0233 63.7767 32.2167 63.45 32.35ZM60.69 29.62C60.6633 29.62 60.65 29.6333 60.65 29.66V32.06C60.65 32.0867 60.6633 32.1 60.69 32.1H62.39C62.81 32.1 63.1433 31.99 63.39 31.77C63.6433 31.55 63.77 31.2567 63.77 30.89C63.77 30.5033 63.6433 30.1967 63.39 29.97C63.1433 29.7367 62.81 29.62 62.39 29.62H60.69ZM62.46 35.37C62.88 35.37 63.2133 35.25 63.46 35.01C63.7133 34.77 63.84 34.4467 63.84 34.04C63.84 33.6333 63.71 33.31 63.45 33.07C63.1967 32.8233 62.8533 32.7 62.42 32.7H60.69C60.6633 32.7 60.65 32.7133 60.65 32.74V35.33C60.65 35.3567 60.6633 35.37 60.69 35.37H62.46ZM68.9928 31.04C68.9928 30.9733 69.0261 30.94 69.0928 30.94H69.6028C69.6695 30.94 69.7028 30.9733 69.7028 31.04V35.9C69.7028 35.9667 69.6695 36 69.6028 36H69.0928C69.0261 36 68.9928 35.9667 68.9928 35.9V35.47C68.9928 35.4567 68.9861 35.4467 68.9728 35.44C68.9595 35.4333 68.9495 35.4367 68.9428 35.45C68.6628 35.8633 68.2195 36.07 67.6128 36.07C67.2928 36.07 66.9961 36.0067 66.7228 35.88C66.4561 35.7467 66.2428 35.5567 66.0828 35.31C65.9295 35.0633 65.8528 34.7667 65.8528 34.42V31.04C65.8528 30.9733 65.8861 30.94 65.9528 30.94H66.4628C66.5295 30.94 66.5628 30.9733 66.5628 31.04V34.21C66.5628 34.59 66.6695 34.8933 66.8828 35.12C67.0961 35.34 67.3861 35.45 67.7528 35.45C68.1328 35.45 68.4328 35.3367 68.6528 35.11C68.8795 34.8833 68.9928 34.5833 68.9928 34.21V31.04ZM72.9541 36.05C72.5808 36.05 72.2475 35.99 71.9541 35.87C71.6675 35.75 71.4441 35.59 71.2841 35.39C71.1308 35.19 71.0541 34.9667 71.0541 34.72V34.6C71.0541 34.5333 71.0875 34.5 71.1541 34.5H71.6341C71.7008 34.5 71.7341 34.5333 71.7341 34.6V34.68C71.7341 34.9 71.8475 35.0933 72.0741 35.26C72.3075 35.42 72.5975 35.5 72.9441 35.5C73.2908 35.5 73.5708 35.4233 73.7841 35.27C73.9975 35.11 74.1041 34.91 74.1041 34.67C74.1041 34.5033 74.0475 34.3667 73.9341 34.26C73.8275 34.1533 73.6975 34.07 73.5441 34.01C73.3975 33.95 73.1675 33.8733 72.8541 33.78C72.4808 33.6733 72.1741 33.5667 71.9341 33.46C71.6941 33.3533 71.4908 33.2067 71.3241 33.02C71.1641 32.8267 71.0841 32.5833 71.0841 32.29C71.0841 31.8633 71.2508 31.5233 71.5841 31.27C71.9175 31.0167 72.3575 30.89 72.9041 30.89C73.2708 30.89 73.5941 30.95 73.8741 31.07C74.1608 31.19 74.3808 31.3567 74.5341 31.57C74.6875 31.7767 74.7641 32.01 74.7641 32.27V32.3C74.7641 32.3667 74.7308 32.4 74.6641 32.4H74.1941C74.1275 32.4 74.0941 32.3667 74.0941 32.3V32.27C74.0941 32.0433 73.9841 31.8533 73.7641 31.7C73.5508 31.5467 73.2608 31.47 72.8941 31.47C72.5541 31.47 72.2808 31.54 72.0741 31.68C71.8675 31.8133 71.7641 32 71.7641 32.24C71.7641 32.4667 71.8641 32.64 72.0641 32.76C72.2641 32.88 72.5741 33 72.9941 33.12C73.3808 33.2333 73.6941 33.34 73.9341 33.44C74.1741 33.54 74.3808 33.6867 74.5541 33.88C74.7275 34.0667 74.8141 34.3133 74.8141 34.62C74.8141 35.0533 74.6441 35.4 74.3041 35.66C73.9641 35.92 73.5141 36.05 72.9541 36.05ZM76.5886 30.02C76.4286 30.02 76.2953 29.9667 76.1886 29.86C76.0819 29.7533 76.0286 29.62 76.0286 29.46C76.0286 29.2933 76.0819 29.16 76.1886 29.06C76.2953 28.9533 76.4286 28.9 76.5886 28.9C76.7486 28.9 76.8819 28.9533 76.9886 29.06C77.0953 29.16 77.1486 29.2933 77.1486 29.46C77.1486 29.62 77.0953 29.7533 76.9886 29.86C76.8819 29.9667 76.7486 30.02 76.5886 30.02ZM76.3086 35.99C76.2419 35.99 76.2086 35.9567 76.2086 35.89V31.03C76.2086 30.9633 76.2419 30.93 76.3086 30.93H76.8186C76.8853 30.93 76.9186 30.9633 76.9186 31.03V35.89C76.9186 35.9567 76.8853 35.99 76.8186 35.99H76.3086ZM80.7574 30.87C81.2908 30.87 81.7141 31.0267 82.0274 31.34C82.3474 31.6533 82.5074 32.0733 82.5074 32.6V35.9C82.5074 35.9667 82.4741 36 82.4074 36H81.8974C81.8308 36 81.7974 35.9667 81.7974 35.9V32.74C81.7974 32.3733 81.6841 32.0733 81.4574 31.84C81.2374 31.6067 80.9508 31.49 80.5974 31.49C80.2308 31.49 79.9341 31.6033 79.7074 31.83C79.4808 32.0567 79.3674 32.3533 79.3674 32.72V35.9C79.3674 35.9667 79.3341 36 79.2674 36H78.7574C78.6908 36 78.6574 35.9667 78.6574 35.9V31.04C78.6574 30.9733 78.6908 30.94 78.7574 30.94H79.2674C79.3341 30.94 79.3674 30.9733 79.3674 31.04V31.47C79.3674 31.4833 79.3708 31.4933 79.3774 31.5C79.3908 31.5067 79.4008 31.5033 79.4074 31.49C79.7008 31.0767 80.1508 30.87 80.7574 30.87ZM87.8597 32.62C87.8864 32.8067 87.8997 33.04 87.8997 33.32V33.64C87.8997 33.7067 87.8664 33.74 87.7997 33.74H84.5697C84.543 33.74 84.5297 33.7533 84.5297 33.78C84.543 34.1467 84.563 34.3833 84.5897 34.49C84.663 34.79 84.8197 35.0267 85.0597 35.2C85.2997 35.3733 85.6064 35.46 85.9797 35.46C86.2597 35.46 86.5064 35.3967 86.7197 35.27C86.933 35.1433 87.0997 34.9633 87.2197 34.73C87.2597 34.67 87.3064 34.6567 87.3597 34.69L87.7497 34.92C87.803 34.9533 87.8164 35 87.7897 35.06C87.623 35.38 87.373 35.6333 87.0397 35.82C86.7064 36 86.323 36.09 85.8897 36.09C85.4164 36.0833 85.0197 35.97 84.6997 35.75C84.3797 35.53 84.1497 35.2233 84.0097 34.83C83.8897 34.51 83.8297 34.05 83.8297 33.45C83.8297 33.17 83.833 32.9433 83.8397 32.77C83.853 32.59 83.8797 32.43 83.9197 32.29C84.033 31.8567 84.2597 31.51 84.5997 31.25C84.9464 30.99 85.363 30.86 85.8497 30.86C86.4564 30.86 86.923 31.0133 87.2497 31.32C87.5764 31.6267 87.7797 32.06 87.8597 32.62ZM85.8497 31.48C85.523 31.48 85.2497 31.5667 85.0297 31.74C84.8164 31.9067 84.6764 32.1333 84.6097 32.42C84.5697 32.56 84.543 32.7867 84.5297 33.1C84.5297 33.1267 84.543 33.14 84.5697 33.14H87.1597C87.1864 33.14 87.1997 33.1267 87.1997 33.1C87.1864 32.8 87.1664 32.5867 87.1397 32.46C87.0664 32.16 86.9164 31.9233 86.6897 31.75C86.4697 31.57 86.1897 31.48 85.8497 31.48ZM90.8838 36.05C90.5105 36.05 90.1772 35.99 89.8838 35.87C89.5972 35.75 89.3738 35.59 89.2138 35.39C89.0605 35.19 88.9838 34.9667 88.9838 34.72V34.6C88.9838 34.5333 89.0172 34.5 89.0838 34.5H89.5638C89.6305 34.5 89.6638 34.5333 89.6638 34.6V34.68C89.6638 34.9 89.7772 35.0933 90.0038 35.26C90.2372 35.42 90.5272 35.5 90.8738 35.5C91.2205 35.5 91.5005 35.4233 91.7138 35.27C91.9272 35.11 92.0338 34.91 92.0338 34.67C92.0338 34.5033 91.9772 34.3667 91.8638 34.26C91.7572 34.1533 91.6272 34.07 91.4738 34.01C91.3272 33.95 91.0972 33.8733 90.7838 33.78C90.4105 33.6733 90.1038 33.5667 89.8638 33.46C89.6238 33.3533 89.4205 33.2067 89.2538 33.02C89.0938 32.8267 89.0138 32.5833 89.0138 32.29C89.0138 31.8633 89.1805 31.5233 89.5138 31.27C89.8472 31.0167 90.2872 30.89 90.8338 30.89C91.2005 30.89 91.5238 30.95 91.8038 31.07C92.0905 31.19 92.3105 31.3567 92.4638 31.57C92.6172 31.7767 92.6938 32.01 92.6938 32.27V32.3C92.6938 32.3667 92.6605 32.4 92.5938 32.4H92.1238C92.0572 32.4 92.0238 32.3667 92.0238 32.3V32.27C92.0238 32.0433 91.9138 31.8533 91.6938 31.7C91.4805 31.5467 91.1905 31.47 90.8238 31.47C90.4838 31.47 90.2105 31.54 90.0038 31.68C89.7972 31.8133 89.6938 32 89.6938 32.24C89.6938 32.4667 89.7938 32.64 89.9938 32.76C90.1938 32.88 90.5038 33 90.9238 33.12C91.3105 33.2333 91.6238 33.34 91.8638 33.44C92.1038 33.54 92.3105 33.6867 92.4838 33.88C92.6572 34.0667 92.7438 34.3133 92.7438 34.62C92.7438 35.0533 92.5738 35.4 92.2338 35.66C91.8938 35.92 91.4438 36.05 90.8838 36.05ZM95.5518 36.05C95.1785 36.05 94.8451 35.99 94.5518 35.87C94.2651 35.75 94.0418 35.59 93.8818 35.39C93.7285 35.19 93.6518 34.9667 93.6518 34.72V34.6C93.6518 34.5333 93.6851 34.5 93.7518 34.5H94.2318C94.2985 34.5 94.3318 34.5333 94.3318 34.6V34.68C94.3318 34.9 94.4451 35.0933 94.6718 35.26C94.9051 35.42 95.1951 35.5 95.5418 35.5C95.8885 35.5 96.1685 35.4233 96.3818 35.27C96.5951 35.11 96.7018 34.91 96.7018 34.67C96.7018 34.5033 96.6451 34.3667 96.5318 34.26C96.4251 34.1533 96.2951 34.07 96.1418 34.01C95.9951 33.95 95.7651 33.8733 95.4518 33.78C95.0785 33.6733 94.7718 33.5667 94.5318 33.46C94.2918 33.3533 94.0885 33.2067 93.9218 33.02C93.7618 32.8267 93.6818 32.5833 93.6818 32.29C93.6818 31.8633 93.8485 31.5233 94.1818 31.27C94.5151 31.0167 94.9551 30.89 95.5018 30.89C95.8685 30.89 96.1918 30.95 96.4718 31.07C96.7585 31.19 96.9785 31.3567 97.1318 31.57C97.2851 31.7767 97.3618 32.01 97.3618 32.27V32.3C97.3618 32.3667 97.3285 32.4 97.2618 32.4H96.7918C96.7251 32.4 96.6918 32.3667 96.6918 32.3V32.27C96.6918 32.0433 96.5818 31.8533 96.3618 31.7C96.1485 31.5467 95.8585 31.47 95.4918 31.47C95.1518 31.47 94.8785 31.54 94.6718 31.68C94.4651 31.8133 94.3618 32 94.3618 32.24C94.3618 32.4667 94.4618 32.64 94.6618 32.76C94.8618 32.88 95.1718 33 95.5918 33.12C95.9785 33.2333 96.2918 33.34 96.5318 33.44C96.7718 33.54 96.9785 33.6867 97.1518 33.88C97.3251 34.0667 97.4118 34.3133 97.4118 34.62C97.4118 35.0533 97.2418 35.4 96.9018 35.66C96.5618 35.92 96.1118 36.05 95.5518 36.05ZM102.868 36.08C102.115 36.08 101.518 35.91 101.078 35.57C100.645 35.23 100.428 34.7767 100.428 34.21V33.9C100.428 33.8333 100.462 33.8 100.528 33.8H101.018C101.085 33.8 101.118 33.8333 101.118 33.9V34.17C101.118 34.5567 101.278 34.87 101.598 35.11C101.918 35.3433 102.362 35.46 102.928 35.46C103.442 35.46 103.832 35.3533 104.098 35.14C104.365 34.92 104.498 34.63 104.498 34.27C104.498 34.0367 104.435 33.8367 104.308 33.67C104.188 33.5033 103.998 33.3467 103.738 33.2C103.485 33.0533 103.125 32.8833 102.658 32.69C102.158 32.49 101.768 32.3167 101.488 32.17C101.215 32.0167 100.992 31.8233 100.818 31.59C100.652 31.35 100.568 31.05 100.568 30.69C100.568 30.13 100.762 29.6967 101.148 29.39C101.542 29.0767 102.078 28.92 102.758 28.92C103.498 28.92 104.082 29.0933 104.508 29.44C104.935 29.7867 105.148 30.2467 105.148 30.82V31.04C105.148 31.1067 105.115 31.14 105.048 31.14H104.548C104.482 31.14 104.448 31.1067 104.448 31.04V30.86C104.448 30.4733 104.295 30.1567 103.988 29.91C103.688 29.6633 103.268 29.54 102.728 29.54C102.255 29.54 101.892 29.6367 101.638 29.83C101.385 30.0233 101.258 30.3033 101.258 30.67C101.258 30.91 101.318 31.11 101.438 31.27C101.565 31.4233 101.742 31.56 101.968 31.68C102.202 31.7933 102.558 31.9433 103.038 32.13C103.525 32.33 103.915 32.5167 104.208 32.69C104.508 32.8633 104.748 33.0767 104.928 33.33C105.115 33.5767 105.208 33.88 105.208 34.24C105.208 34.8 105.002 35.2467 104.588 35.58C104.175 35.9133 103.602 36.08 102.868 36.08ZM106.648 36C106.581 36 106.548 35.9667 106.548 35.9V29.1C106.548 29.0333 106.581 29 106.648 29H107.158C107.225 29 107.258 29.0333 107.258 29.1V35.9C107.258 35.9667 107.225 36 107.158 36H106.648ZM110.783 36.08C110.303 36.08 109.889 35.9567 109.543 35.71C109.196 35.4633 108.956 35.1233 108.823 34.69C108.729 34.3833 108.683 33.9733 108.683 33.46C108.683 32.9467 108.729 32.54 108.823 32.24C108.949 31.8133 109.186 31.4767 109.533 31.23C109.879 30.9833 110.299 30.86 110.793 30.86C111.266 30.86 111.673 30.9833 112.013 31.23C112.359 31.4767 112.596 31.81 112.723 32.23C112.816 32.5167 112.863 32.9267 112.863 33.46C112.863 34 112.816 34.41 112.723 34.69C112.596 35.1233 112.359 35.4633 112.013 35.71C111.673 35.9567 111.263 36.08 110.783 36.08ZM110.783 35.46C111.103 35.46 111.376 35.3733 111.603 35.2C111.829 35.02 111.983 34.78 112.063 34.48C112.123 34.24 112.153 33.9033 112.153 33.47C112.153 33.03 112.126 32.6933 112.073 32.46C111.993 32.16 111.836 31.9233 111.603 31.75C111.376 31.57 111.099 31.48 110.773 31.48C110.446 31.48 110.169 31.57 109.943 31.75C109.716 31.9233 109.563 32.16 109.483 32.46C109.429 32.6933 109.403 33.03 109.403 33.47C109.403 33.91 109.429 34.2467 109.483 34.48C109.556 34.78 109.706 35.02 109.933 35.2C110.166 35.3733 110.449 35.46 110.783 35.46ZM117.422 31.04C117.422 30.9733 117.455 30.94 117.522 30.94H118.032C118.099 30.94 118.132 30.9733 118.132 31.04V35.83C118.132 36.5767 117.915 37.1233 117.482 37.47C117.055 37.8167 116.465 37.99 115.712 37.99C115.559 37.99 115.442 37.9867 115.362 37.98C115.295 37.9733 115.262 37.9367 115.262 37.87L115.282 37.41C115.282 37.3767 115.292 37.35 115.312 37.33C115.332 37.3167 115.355 37.3133 115.382 37.32L115.652 37.33C116.272 37.33 116.722 37.2067 117.002 36.96C117.282 36.72 117.422 36.3367 117.422 35.81V35.44C117.422 35.4267 117.415 35.42 117.402 35.42C117.395 35.4133 117.385 35.4167 117.372 35.43C117.065 35.83 116.629 36.03 116.062 36.03C115.629 36.03 115.242 35.9133 114.902 35.68C114.569 35.4467 114.345 35.1167 114.232 34.69C114.152 34.4167 114.112 34.01 114.112 33.47C114.112 33.1767 114.119 32.93 114.132 32.73C114.152 32.53 114.189 32.35 114.242 32.19C114.362 31.79 114.579 31.47 114.892 31.23C115.205 30.9833 115.582 30.86 116.022 30.86C116.615 30.86 117.065 31.0567 117.372 31.45C117.385 31.4633 117.395 31.4667 117.402 31.46C117.415 31.4533 117.422 31.4433 117.422 31.43V31.04ZM117.372 34.47C117.392 34.37 117.405 34.2467 117.412 34.1C117.419 33.9533 117.422 33.74 117.422 33.46C117.422 33.12 117.419 32.8933 117.412 32.78C117.405 32.66 117.389 32.55 117.362 32.45C117.309 32.17 117.175 31.94 116.962 31.76C116.755 31.5733 116.492 31.48 116.172 31.48C115.859 31.48 115.592 31.57 115.372 31.75C115.159 31.93 115.009 32.1633 114.922 32.45C114.855 32.6633 114.822 32.9967 114.822 33.45C114.822 33.9367 114.855 34.2733 114.922 34.46C114.989 34.74 115.132 34.9733 115.352 35.16C115.579 35.34 115.852 35.43 116.172 35.43C116.499 35.43 116.765 35.34 116.972 35.16C117.185 34.98 117.319 34.75 117.372 34.47ZM121.404 30.86C122.004 30.86 122.467 31.0133 122.794 31.32C123.12 31.6267 123.284 32.0333 123.284 32.54V35.9C123.284 35.9667 123.25 36 123.184 36H122.674C122.607 36 122.574 35.9667 122.574 35.9V35.49C122.574 35.4767 122.567 35.4667 122.554 35.46C122.547 35.4533 122.537 35.4567 122.524 35.47C122.357 35.67 122.14 35.8233 121.874 35.93C121.607 36.03 121.31 36.08 120.984 36.08C120.51 36.08 120.114 35.96 119.794 35.72C119.474 35.48 119.314 35.1133 119.314 34.62C119.314 34.12 119.494 33.7267 119.854 33.44C120.22 33.1467 120.727 33 121.374 33H122.534C122.56 33 122.574 32.9867 122.574 32.96V32.58C122.574 32.24 122.477 31.9733 122.284 31.78C122.097 31.58 121.804 31.48 121.404 31.48C121.084 31.48 120.824 31.5433 120.624 31.67C120.424 31.79 120.3 31.96 120.254 32.18C120.234 32.2467 120.194 32.2767 120.134 32.27L119.594 32.2C119.52 32.1867 119.49 32.16 119.504 32.12C119.557 31.7467 119.757 31.4433 120.104 31.21C120.45 30.9767 120.884 30.86 121.404 30.86ZM121.124 35.47C121.517 35.47 121.857 35.3733 122.144 35.18C122.43 34.98 122.574 34.7133 122.574 34.38V33.6C122.574 33.5733 122.56 33.56 122.534 33.56H121.484C121.044 33.56 120.69 33.65 120.424 33.83C120.157 34.01 120.024 34.26 120.024 34.58C120.024 34.8733 120.124 35.0967 120.324 35.25C120.53 35.3967 120.797 35.47 121.124 35.47ZM126.861 30.87C127.394 30.87 127.818 31.0267 128.131 31.34C128.451 31.6533 128.611 32.0733 128.611 32.6V35.9C128.611 35.9667 128.578 36 128.511 36H128.001C127.934 36 127.901 35.9667 127.901 35.9V32.74C127.901 32.3733 127.788 32.0733 127.561 31.84C127.341 31.6067 127.054 31.49 126.701 31.49C126.334 31.49 126.038 31.6033 125.811 31.83C125.584 32.0567 125.471 32.3533 125.471 32.72V35.9C125.471 35.9667 125.438 36 125.371 36H124.861C124.794 36 124.761 35.9667 124.761 35.9V31.04C124.761 30.9733 124.794 30.94 124.861 30.94H125.371C125.438 30.94 125.471 30.9733 125.471 31.04V31.47C125.471 31.4833 125.474 31.4933 125.481 31.5C125.494 31.5067 125.504 31.5033 125.511 31.49C125.804 31.0767 126.254 30.87 126.861 30.87ZM134.254 30.87C134.787 30.87 135.21 31.0267 135.524 31.34C135.844 31.6533 136.004 32.0733 136.004 32.6V35.9C136.004 35.9667 135.97 36 135.904 36H135.394C135.327 36 135.294 35.9667 135.294 35.9V32.74C135.294 32.3733 135.18 32.0733 134.954 31.84C134.734 31.6067 134.447 31.49 134.094 31.49C133.727 31.49 133.43 31.6033 133.204 31.83C132.977 32.0567 132.864 32.3533 132.864 32.72V35.9C132.864 35.9667 132.83 36 132.764 36H132.254C132.187 36 132.154 35.9667 132.154 35.9V29.1C132.154 29.0333 132.187 29 132.254 29H132.764C132.83 29 132.864 29.0333 132.864 29.1V31.47C132.864 31.4833 132.867 31.4933 132.874 31.5C132.887 31.5067 132.897 31.5033 132.904 31.49C133.197 31.0767 133.647 30.87 134.254 30.87ZM141.356 32.62C141.382 32.8067 141.396 33.04 141.396 33.32V33.64C141.396 33.7067 141.362 33.74 141.296 33.74H138.066C138.039 33.74 138.026 33.7533 138.026 33.78C138.039 34.1467 138.059 34.3833 138.086 34.49C138.159 34.79 138.316 35.0267 138.556 35.2C138.796 35.3733 139.102 35.46 139.476 35.46C139.756 35.46 140.002 35.3967 140.216 35.27C140.429 35.1433 140.596 34.9633 140.716 34.73C140.756 34.67 140.802 34.6567 140.856 34.69L141.246 34.92C141.299 34.9533 141.312 35 141.286 35.06C141.119 35.38 140.869 35.6333 140.536 35.82C140.202 36 139.819 36.09 139.386 36.09C138.912 36.0833 138.516 35.97 138.196 35.75C137.876 35.53 137.646 35.2233 137.506 34.83C137.386 34.51 137.326 34.05 137.326 33.45C137.326 33.17 137.329 32.9433 137.336 32.77C137.349 32.59 137.376 32.43 137.416 32.29C137.529 31.8567 137.756 31.51 138.096 31.25C138.442 30.99 138.859 30.86 139.346 30.86C139.952 30.86 140.419 31.0133 140.746 31.32C141.072 31.6267 141.276 32.06 141.356 32.62ZM139.346 31.48C139.019 31.48 138.746 31.5667 138.526 31.74C138.312 31.9067 138.172 32.1333 138.106 32.42C138.066 32.56 138.039 32.7867 138.026 33.1C138.026 33.1267 138.039 33.14 138.066 33.14H140.656C140.682 33.14 140.696 33.1267 140.696 33.1C140.682 32.8 140.662 32.5867 140.636 32.46C140.562 32.16 140.412 31.9233 140.186 31.75C139.966 31.57 139.686 31.48 139.346 31.48ZM144.848 30.89C145.068 30.89 145.258 30.9333 145.418 31.02C145.471 31.0467 145.491 31.09 145.478 31.15L145.368 31.64C145.348 31.7067 145.304 31.7267 145.238 31.7C145.124 31.6533 144.994 31.63 144.848 31.63L144.718 31.64C144.371 31.6533 144.084 31.7833 143.858 32.03C143.631 32.27 143.518 32.5767 143.518 32.95V35.9C143.518 35.9667 143.484 36 143.418 36H142.908C142.841 36 142.808 35.9667 142.808 35.9V31.04C142.808 30.9733 142.841 30.94 142.908 30.94H143.418C143.484 30.94 143.518 30.9733 143.518 31.04V31.65C143.518 31.67 143.521 31.6833 143.528 31.69C143.541 31.69 143.551 31.6833 143.558 31.67C143.698 31.4233 143.874 31.2333 144.088 31.1C144.308 30.96 144.561 30.89 144.848 30.89ZM150.282 32.62C150.308 32.8067 150.322 33.04 150.322 33.32V33.64C150.322 33.7067 150.288 33.74 150.222 33.74H146.992C146.965 33.74 146.952 33.7533 146.952 33.78C146.965 34.1467 146.985 34.3833 147.012 34.49C147.085 34.79 147.242 35.0267 147.482 35.2C147.722 35.3733 148.028 35.46 148.402 35.46C148.682 35.46 148.928 35.3967 149.142 35.27C149.355 35.1433 149.522 34.9633 149.642 34.73C149.682 34.67 149.728 34.6567 149.782 34.69L150.172 34.92C150.225 34.9533 150.238 35 150.212 35.06C150.045 35.38 149.795 35.6333 149.462 35.82C149.128 36 148.745 36.09 148.312 36.09C147.838 36.0833 147.442 35.97 147.122 35.75C146.802 35.53 146.572 35.2233 146.432 34.83C146.312 34.51 146.252 34.05 146.252 33.45C146.252 33.17 146.255 32.9433 146.262 32.77C146.275 32.59 146.302 32.43 146.342 32.29C146.455 31.8567 146.682 31.51 147.022 31.25C147.368 30.99 147.785 30.86 148.272 30.86C148.878 30.86 149.345 31.0133 149.672 31.32C149.998 31.6267 150.202 32.06 150.282 32.62ZM148.272 31.48C147.945 31.48 147.672 31.5667 147.452 31.74C147.238 31.9067 147.098 32.1333 147.032 32.42C146.992 32.56 146.965 32.7867 146.952 33.1C146.952 33.1267 146.965 33.14 146.992 33.14H149.582C149.608 33.14 149.622 33.1267 149.622 33.1C149.608 32.8 149.588 32.5867 149.562 32.46C149.488 32.16 149.338 31.9233 149.112 31.75C148.892 31.57 148.612 31.48 148.272 31.48Z" fill="#231E07"/>
</svg>
