<?xml version="1.0" encoding="utf-8"?>
<!-- Generator: Adobe Illustrator 24.0.0, SVG Export Plug-In . SVG Version: 6.00 Build 0)  -->
<svg version="1.1" id="Layer_1" xmlns="http://www.w3.org/2000/svg" xmlns:xlink="http://www.w3.org/1999/xlink" x="0px" y="0px"
	 viewBox="0 0 77.7 50.9" style="enable-background:new 0 0 77.7 50.9;" xml:space="preserve">
<style type="text/css">
	.st0{fill:#FFFFFF;}
	.st1{fill:none;stroke:#E3C5BE;}
</style>
<title>Asset 1</title>
<path class="st0" d="M77.7,48.2v2.7H0v-2.7h3.3c5.9,0,11-3.4,13.4-8.4h46.2c2.4,5,7.5,8.4,13.4,8.4H77.7z"/>
<path class="st1" d="M0,48.2h3.3c8.2,0,14.8-6.7,14.8-14.9c0,0,0,0,0,0V22.2c0-12,9.7-21.7,21.6-21.7c0.3,0,0.5,0,0.8,0
	c11.7,0.4,20.8,10.4,20.8,22.2v10.7c0,8.2,6.6,14.9,14.8,14.9c0,0,0,0,0,0h1.5"/>
</svg>
