<svg width="22" height="20" viewBox="0 0 22 20" fill="none" xmlns="http://www.w3.org/2000/svg">
<path d="M7.96178 12.8459C12.2792 12.8459 15.9236 13.5321 15.9236 16.1854C15.9236 18.8367 12.2559 19.5 7.96178 19.5L7.66848 19.4989C3.48056 19.4678 0 18.7535 0 16.1605C0 13.5092 3.66765 12.8459 7.96178 12.8459ZM14.7005 11.2485C16.3425 11.2173 18.1085 11.4384 18.7604 11.5942C20.1426 11.8589 21.0511 12.3976 21.4274 13.1835C21.7464 13.8271 21.7464 14.5745 21.4274 15.2181C20.8518 16.4347 18.9946 16.8261 18.2728 16.9268C18.1233 16.9476 18.0035 16.823 18.0194 16.6756C18.3883 13.3039 15.4552 11.7052 14.6963 11.3378C14.6645 11.3201 14.657 11.2952 14.6602 11.2786C14.6623 11.2682 14.6761 11.2516 14.7005 11.2485ZM7.96178 0C10.8864 0 13.2301 2.2952 13.2301 5.15928C13.2301 8.02335 10.8864 10.3186 7.96178 10.3186C5.03825 10.3186 2.6935 8.02335 2.6935 5.15928C2.6935 2.2952 5.03825 0 7.96178 0ZM14.9867 0.861714C17.8117 0.861714 20.0292 3.46315 19.2734 6.36045C18.7635 8.31308 16.9181 9.60965 14.8616 9.55671C14.6549 9.55256 14.4525 9.53283 14.2553 9.50065C14.1133 9.47574 14.0412 9.31899 14.1228 9.20272C14.9072 8.07225 15.3545 6.71132 15.3545 5.25281C15.3545 3.7289 14.8669 2.30984 14.0179 1.14407C13.9903 1.10774 13.9702 1.05272 13.9977 1.01016C14.0189 0.976941 14.0613 0.958256 14.1005 0.949951C14.3867 0.892856 14.6804 0.861714 14.9867 0.861714Z" fill="#F78D78"/>
</svg>
