<svg width="21" height="21" viewBox="0 0 21 21" fill="none" xmlns="http://www.w3.org/2000/svg">
<path d="M10.5 0C16.3065 0 21 4.704 21 10.5C21 16.3065 16.3065 21 10.5 21C4.704 21 0 16.3065 0 10.5C0 4.704 4.704 0 10.5 0ZM10.1325 5.1765C9.702 5.1765 9.345 5.523 9.345 5.964V11.2665C9.345 11.5395 9.492 11.7915 9.7335 11.9385L13.8495 14.3955C13.9755 14.469 14.112 14.511 14.259 14.511C14.5215 14.511 14.784 14.3745 14.931 14.1225C15.1515 13.755 15.036 13.272 14.658 13.041L10.92 10.815V5.964C10.92 5.523 10.563 5.1765 10.1325 5.1765Z" fill="#F78D78"/>
</svg>
