<svg width="22" height="21" viewBox="0 0 22 21" fill="none" xmlns="http://www.w3.org/2000/svg">
<path d="M10.9883 0.0708313C16.7056 0.0708313 21.3398 4.705 21.3398 10.4224C21.3398 16.1398 16.7056 20.7739 10.9883 20.7739C5.27088 20.7739 0.636719 16.1398 0.636719 10.4224C0.636719 4.705 5.27088 0.0708313 10.9883 0.0708313ZM10.9883 1.62356C6.12843 1.62356 2.18945 5.56255 2.18945 10.4224C2.18945 15.2822 6.12843 19.2212 10.9883 19.2212C15.8481 19.2212 19.7871 15.2822 19.7871 10.4224C19.7871 5.56255 15.8481 1.62356 10.9883 1.62356ZM10.638 5.34639C11.031 5.34639 11.3558 5.63847 11.4072 6.01741L11.4143 6.12276L11.4139 10.6982L14.9382 12.8015C15.2758 13.0028 15.4051 13.4201 15.2551 13.7719L15.2072 13.866C15.0059 14.2035 14.5886 14.3328 14.2369 14.1828L14.1428 14.135L10.2402 11.8069C10.039 11.6868 9.90455 11.4836 9.87025 11.2558L9.8616 11.1402V6.12276C9.8616 5.69398 10.2092 5.34639 10.638 5.34639Z" fill="#F78D78"/>
</svg>
