<svg width="38" height="40" viewBox="0 0 38 40" fill="none" xmlns="http://www.w3.org/2000/svg">
<path d="M14.46 1.57598C17 -0.442023 20.56 -0.522023 23.178 1.33598L23.5 1.57598L35.678 11.318C37.018 12.356 37.84 13.898 37.98 15.576L38 15.978V32.196C38 36.376 34.698 39.776 30.56 39.996H26.58C24.678 39.958 23.14 38.478 23 36.618L22.98 36.336V30.618C22.98 29.996 22.518 29.478 21.9 29.376L21.72 29.356H16.378C15.74 29.376 15.22 29.836 15.14 30.436L15.12 30.618V36.318C15.12 36.436 15.098 36.576 15.08 36.676L15.06 36.718L15.038 36.856C14.8 38.558 13.4 39.856 11.66 39.978L11.4 39.996H7.82C3.64 39.996 0.22 36.718 0 32.596V15.978C0.018 14.276 0.76 12.696 2 11.596L14.46 1.57598ZM21.76 3.75598C20.24 2.53598 18.08 2.47798 16.48 3.53598L16.178 3.75598L4.018 13.558C3.32 14.076 2.9 14.856 2.8 15.676L2.778 15.996V32.196C2.778 34.856 4.858 37.036 7.5 37.196H11.4C11.84 37.196 12.22 36.898 12.278 36.478L12.32 36.118L12.34 36.016V30.618C12.34 28.478 13.98 26.738 16.08 26.576H21.72C23.858 26.576 25.598 28.218 25.76 30.318V36.336C25.76 36.756 26.06 37.118 26.46 37.196H30.178C32.858 37.196 35.038 35.138 35.198 32.516L35.22 32.196V15.996C35.198 15.138 34.84 14.336 34.22 13.738L33.96 13.516L21.76 3.75598Z" fill="#200E32"/>
</svg>
