<svg width="23" height="22" viewBox="0 0 23 22" fill="none" xmlns="http://www.w3.org/2000/svg">
<path d="M10.3916 0.164722C13.0244 0.164722 15.1732 2.17142 15.2938 4.69039L15.2992 4.91394V5.91304C15.2992 6.3566 14.9276 6.71618 14.4693 6.71618C14.0491 6.71618 13.7019 6.41404 13.6469 6.02202L13.6394 5.91304V4.91394C13.6394 3.24031 12.2871 1.87194 10.5825 1.77633L10.3916 1.771H4.99724C3.26876 1.771 1.85493 3.07972 1.75615 4.7293L1.75064 4.91394V16.8325C1.75064 18.506 3.10273 19.8745 4.80653 19.9701L4.99724 19.9754H10.4027C12.126 19.9754 13.5354 18.6716 13.6339 17.0282L13.6394 16.8443V15.8345C13.6394 15.3909 14.0109 15.0313 14.4693 15.0313C14.8894 15.0313 15.2366 15.3335 15.2916 15.7255L15.2992 15.8345V16.8443C15.2992 19.3835 13.2335 21.4565 10.6399 21.5763L10.4027 21.5817H4.99724C2.36538 21.5817 0.21679 19.5748 0.0961618 17.056L0.0908203 16.8325V4.91394C0.0908203 2.36633 2.16422 0.286652 4.76631 0.169893L4.99724 0.164722H10.3916ZM19.2386 7.10475L19.3318 7.18231L22.5718 10.3038C22.6009 10.3319 22.6266 10.3604 22.65 10.3905L22.5718 10.3038C22.6056 10.3364 22.6359 10.3711 22.6627 10.4074C22.6816 10.4329 22.699 10.4598 22.7148 10.4876C22.7177 10.4931 22.7206 10.4984 22.7235 10.5037C22.7375 10.5294 22.7499 10.556 22.7608 10.5834C22.7653 10.5954 22.7698 10.6075 22.774 10.6197C22.7821 10.6422 22.7889 10.6654 22.7946 10.689C22.7972 10.7016 22.7999 10.7141 22.8023 10.7266C22.8069 10.7485 22.8102 10.7711 22.8125 10.7939C22.8138 10.8098 22.8149 10.8256 22.8155 10.8414C22.8163 10.8519 22.8165 10.8625 22.8165 10.8731L22.8156 10.9034C22.8149 10.9199 22.8138 10.9364 22.8121 10.9528L22.8165 10.8731C22.8165 10.9233 22.8117 10.9724 22.8026 11.02C22.8 11.0319 22.7972 11.0444 22.7942 11.0569C22.7886 11.0817 22.7815 11.1058 22.7734 11.1293C22.7691 11.1403 22.765 11.1514 22.7606 11.1624C22.7504 11.189 22.7384 11.2148 22.7251 11.2399C22.7218 11.2455 22.7183 11.2519 22.7147 11.2582C22.6766 11.326 22.6289 11.3873 22.5734 11.441L22.5719 11.4421L19.3319 14.5647C19.0071 14.8777 18.4817 14.8766 18.1582 14.5623C17.8642 14.2766 17.8384 13.8304 18.0801 13.5165L18.1607 13.4265L19.9743 11.6753L8.66267 11.6763C8.20432 11.6763 7.83276 11.3167 7.83276 10.8731C7.83276 10.4665 8.14498 10.1305 8.55006 10.0773L8.66267 10.07L19.9765 10.069L18.1608 8.32064C17.8655 8.03615 17.8377 7.59002 18.078 7.27509L18.1581 7.18484C18.4521 6.89907 18.9131 6.87216 19.2386 7.10475Z" fill="#F78D78"/>
</svg>
