<?xml version="1.0" standalone="no"?>
<!DOCTYPE svg PUBLIC "-//W3C//DTD SVG 20010904//EN"
 "http://www.w3.org/TR/2001/REC-SVG-20010904/DTD/svg10.dtd">
<svg version="1.0" xmlns="http://www.w3.org/2000/svg"
 width="600.000000pt" height="600.000000pt" viewBox="0 0 600.000000 600.000000"
 preserveAspectRatio="xMidYMid meet">
<metadata>
Created by potrace 1.11, written by Peter Selinger 2001-2013
</metadata>
<g transform="translate(0.000000,600.000000) scale(0.100000,-0.100000)"
fill="#000000" stroke="none">
<path d="M1995 5606 c-131 -32 -242 -121 -302 -244 l-38 -76 -5 -315 -5 -316
-750 -5 c-828 -6 -781 -2 -838 -69 -60 -71 -58 -46 -55 -862 l3 -746 30 -49
c39 -64 113 -104 192 -104 l53 0 2 -1143 3 -1144 30 -48 c22 -36 45 -57 84
-77 l53 -28 2548 0 2548 0 53 28 c39 20 62 41 84 77 l30 48 3 1144 2 1143 49
0 c97 0 164 40 205 122 l26 52 0 730 c0 498 -4 744 -11 771 -14 51 -49 97 -96
127 l-38 23 -750 5 -750 5 -5 316 -5 315 -38 76 c-61 125 -181 219 -315 247
-79 16 -1928 14 -1997 -3z m1959 -398 c14 -19 16 -64 16 -290 l0 -268 -970 0
-970 0 0 268 c0 226 2 271 16 290 l15 22 939 0 939 0 15 -22z m-602 -2075 c17
-15 18 -40 18 -389 l0 -373 -22 -15 c-19 -14 -70 -16 -352 -16 -292 0 -331 2
-348 17 -17 15 -18 40 -18 386 0 331 2 372 17 389 15 17 39 18 351 18 298 0
337 -2 354 -17z"/>
<path d="M2780 2745 l0 -255 220 0 220 0 0 255 0 255 -220 0 -220 0 0 -255z"/>
</g>
</svg>
